<svg xmlns="http://www.w3.org/2000/svg" width="25" height="24" viewBox="0 0 25 24" fill="none">
  <path fill-rule="evenodd" clip-rule="evenodd" d="M11.8282 15.8523C11.3757 14.8845 11.2729 13.8204 11.4913 12.8235C10.4944 13.0419 9.43035 12.9391 8.4625 12.4866L3.86215 10.4894C3.59506 10.3734 3.35059 10.2673 3.16543 10.1669C2.9997 10.0771 2.70819 9.90645 2.556 9.58536C2.38167 9.21755 2.39734 8.78789 2.598 8.43375C2.77318 8.1246 3.07635 7.97566 3.24818 7.89811C3.44017 7.81147 3.6917 7.72346 3.96654 7.62729L20.5268 1.8312C20.7535 1.75179 20.9696 1.67613 21.1494 1.63097C21.3232 1.58732 21.6112 1.52966 21.9126 1.63511C22.2717 1.76075 22.554 2.04308 22.6797 2.40217C22.7851 2.70356 22.7275 2.99158 22.6838 3.16537C22.6387 3.34514 22.563 3.56125 22.4836 3.78803L16.6875 20.3483C16.5913 20.6232 16.5033 20.8747 16.4167 21.0667C16.3391 21.2385 16.1902 21.5417 15.881 21.7168C15.5269 21.9175 15.0973 21.9332 14.7294 21.7588C14.4083 21.6067 14.2377 21.3151 14.1479 21.1494C14.0475 20.9643 13.9414 20.7198 13.8254 20.4528L11.8282 15.8523ZM20.5212 4.85426L13.833 11.5424C12.864 12.5115 12.6069 13.9843 13.1905 15.2244L13.1953 15.2346L15.2398 19.9438L20.5212 4.85426ZM19.4605 3.7936L12.7724 10.4818C11.8033 11.4508 10.3305 11.7079 9.09047 11.1243L9.0802 11.1195L4.37107 9.07499L19.4605 3.7936Z" fill="white"/>
  <path d="M8.28467 14.9697L3.78467 19.4697L4.84533 20.5303L9.34533 16.0303L8.28467 14.9697Z" fill="white"/>
  <path d="M3.23877 15.5199L5.73877 12.5199L6.8911 13.4801L4.3911 16.4801L3.23877 15.5199Z" fill="white"/>
  <path d="M10.8345 17.4238L7.83447 19.9238L8.79474 21.0762L11.7947 18.5762L10.8345 17.4238Z" fill="white"/>
</svg>