<svg xmlns="http://www.w3.org/2000/svg" width="45" height="46" viewBox="0 0 45 46" fill="none">
  <path d="M10.3879 23.0818C10.1919 22.7428 9.92989 22.4448 9.61889 22.2058C9.30789 21.9668 8.95289 21.7908 8.57389 21.6898C8.19489 21.5878 7.79989 21.5618 7.41089 21.6128C7.02089 21.6638 6.64589 21.7908 6.30589 21.9868C5.96689 22.1828 5.66889 22.4448 5.42989 22.7558C5.19089 23.0668 5.01489 23.4218 4.91389 23.8008C4.81189 24.1798 4.78589 24.5748 4.83689 24.9648C4.88789 25.3538 5.01489 25.7288 5.21189 26.0688L11.3499 36.7028C12.9499 39.4138 15.5559 41.3828 18.5999 42.1828C21.6449 42.9828 24.8829 42.5488 27.6089 40.9748C30.3349 39.4008 32.3299 36.8138 33.1589 33.7768C33.9879 30.7408 33.5849 27.4988 32.0369 24.7578L29.2169 19.8638C28.7969 19.2298 28.1499 18.7798 27.4099 18.6068C26.6689 18.4328 25.8909 18.5488 25.2319 18.9298C24.5739 19.3108 24.0859 19.9278 23.8679 20.6568C23.6489 21.3858 23.7169 22.1698 24.0579 22.8498" stroke="#F9CD31" stroke-width="2.6" stroke-linecap="round" stroke-linejoin="round"/>
  <path d="M19.543 26.9968L13.239 16.0808C13.043 15.7408 12.782 15.4438 12.471 15.2048C12.16 14.9658 11.804 14.7898 11.425 14.6888C11.046 14.5868 10.651 14.5608 10.262 14.6118C9.87298 14.6628 9.49798 14.7898 9.15798 14.9858C8.81798 15.1818 8.51998 15.4438 8.28098 15.7548C8.04198 16.0658 7.86698 16.4208 7.76498 16.7998C7.66398 17.1788 7.63798 17.5738 7.68898 17.9628C7.73998 18.3518 7.86698 18.7278 8.06298 19.0668L14.367 29.9838" stroke="#F9CD31" stroke-width="2.6" stroke-linecap="round" stroke-linejoin="round"/>
  <path d="M26.7108 27.4608L19.7428 15.3838C19.3468 14.6978 18.6948 14.1968 17.9288 13.9908C17.1638 13.7858 16.3478 13.8928 15.6618 14.2888C14.9758 14.6848 14.4748 15.3368 14.2688 16.1028C14.0638 16.8678 14.1708 17.6838 14.5668 18.3698" stroke="#F9CD31" stroke-width="2.6" stroke-linecap="round" stroke-linejoin="round"/>
  <path d="M18.217 14.0898L16.509 11.1198C16.113 10.4338 15.46 9.93282 14.695 9.72782C13.93 9.52182 13.114 9.62982 12.428 10.0248C11.741 10.4208 11.24 11.0738 11.035 11.8388C10.83 12.6048 10.937 13.4198 11.333 14.1058L11.731 14.7868" stroke="#F9CD31" stroke-width="2.6" stroke-linecap="round" stroke-linejoin="round"/>
  <path d="M32.9817 34.6289C35.0067 32.7949 36.3427 30.3239 36.7677 27.6259C37.1937 24.9279 36.6827 22.1649 35.3207 19.7979L32.5007 14.9199C32.3047 14.5799 32.0437 14.2819 31.7327 14.0429C31.4207 13.8039 31.0657 13.6289 30.6867 13.5279C30.3077 13.4259 29.9127 13.3999 29.5237 13.4509C29.1347 13.5019 28.7597 13.6289 28.4197 13.8249C28.0797 14.0209 27.7817 14.2819 27.5427 14.5939C27.3037 14.9049 27.1287 15.2599 27.0267 15.6389C26.9247 16.0179 26.8987 16.4129 26.9497 16.8019C27.0007 17.1909 27.1287 17.5659 27.3247 17.9059" stroke="#F9CD31" stroke-width="2.6" stroke-linecap="round" stroke-linejoin="round"/>
  <path d="M27.707 18.5699L23.013 10.4409C22.617 9.7539 21.964 9.2529 21.199 9.0479C20.433 8.8429 19.618 8.9499 18.931 9.3459C18.245 9.7419 17.744 10.3939 17.539 11.1599C17.333 11.9249 17.44 12.7399 17.837 13.4269" stroke="#F9CD31" stroke-width="2.6" stroke-linecap="round" stroke-linejoin="round"/>
  <path d="M31.1248 4.73389L30.4448 7.28889" stroke="#F9CD31" stroke-width="2.6" stroke-linecap="round" stroke-linejoin="round"/>
  <path d="M36.15 7.07275L34.624 9.24575" stroke="#F9CD31" stroke-width="2.6" stroke-linecap="round" stroke-linejoin="round"/>
  <path d="M40.049 10.9709L37.876 12.4979" stroke="#F9CD31" stroke-width="2.6" stroke-linecap="round" stroke-linejoin="round"/>
</svg>