<svg width="45" height="46" viewBox="0 0 45 46" fill="none" xmlns="http://www.w3.org/2000/svg">
<g clip-path="url(#clip0_295_2209)">
<path d="M10.3879 22.6919C10.1919 22.3529 9.92989 22.0549 9.61889 21.8159C9.30789 21.5769 8.95289 21.4009 8.57389 21.2999C8.19489 21.1979 7.79989 21.1719 7.41089 21.2229C7.02089 21.2739 6.64589 21.4009 6.30589 21.5969C5.96689 21.7929 5.66889 22.0549 5.42989 22.3659C5.19089 22.6769 5.01489 23.0319 4.91389 23.4109C4.81189 23.7899 4.78589 24.1849 4.83689 24.5749C4.88789 24.9639 5.01489 25.3389 5.21189 25.6789L11.3499 36.3129C12.9499 39.0239 15.5559 40.9929 18.5999 41.7929C21.6449 42.5929 24.8829 42.1589 27.6089 40.5849C30.3349 39.0109 32.3299 36.4239 33.1589 33.3869C33.9879 30.3509 33.5849 27.1089 32.0369 24.3679L29.2169 19.4739C28.7969 18.8399 28.1499 18.3899 27.4099 18.2169C26.6689 18.0429 25.8909 18.1589 25.2319 18.5399C24.5739 18.9209 24.0859 19.5379 23.8679 20.2669C23.6489 20.9959 23.7169 21.7799 24.0579 22.4599" stroke="white" stroke-width="2.6" stroke-linecap="round" stroke-linejoin="round"/>
<path d="M19.543 26.6069L13.239 15.6909C13.043 15.3509 12.782 15.0539 12.471 14.8149C12.16 14.5759 11.804 14.3999 11.425 14.2989C11.046 14.1969 10.651 14.1709 10.262 14.2219C9.87298 14.2729 9.49798 14.3999 9.15798 14.5959C8.81798 14.7919 8.51998 15.0539 8.28098 15.3649C8.04198 15.6759 7.86698 16.0309 7.76498 16.4099C7.66398 16.7889 7.63798 17.1839 7.68898 17.5729C7.73998 17.9619 7.86698 18.3379 8.06298 18.6769L14.367 29.5939" stroke="white" stroke-width="2.6" stroke-linecap="round" stroke-linejoin="round"/>
<path d="M26.7108 27.0709L19.7428 14.9939C19.3468 14.3079 18.6948 13.8069 17.9288 13.6009C17.1638 13.3959 16.3478 13.5029 15.6618 13.8989C14.9758 14.2949 14.4748 14.9469 14.2688 15.7129C14.0638 16.4779 14.1708 17.2939 14.5668 17.9799" stroke="white" stroke-width="2.6" stroke-linecap="round" stroke-linejoin="round"/>
<path d="M18.217 13.6999L16.509 10.7299C16.113 10.0439 15.46 9.54293 14.695 9.33793C13.93 9.13193 13.114 9.23993 12.428 9.63493C11.741 10.0309 11.24 10.6839 11.035 11.4489C10.83 12.2149 10.937 13.0299 11.333 13.7159L11.731 14.3969" stroke="white" stroke-width="2.6" stroke-linecap="round" stroke-linejoin="round"/>
<path d="M32.9817 34.239C35.0067 32.405 36.3427 29.934 36.7677 27.236C37.1937 24.538 36.6827 21.775 35.3207 19.408L32.5007 14.53C32.3047 14.19 32.0437 13.892 31.7327 13.653C31.4207 13.414 31.0657 13.239 30.6867 13.138C30.3077 13.036 29.9127 13.01 29.5237 13.061C29.1347 13.112 28.7597 13.239 28.4197 13.435C28.0797 13.631 27.7817 13.892 27.5427 14.204C27.3037 14.515 27.1287 14.87 27.0267 15.249C26.9247 15.628 26.8987 16.023 26.9497 16.412C27.0007 16.801 27.1287 17.176 27.3247 17.516" stroke="white" stroke-width="2.6" stroke-linecap="round" stroke-linejoin="round"/>
<path d="M27.707 18.18L23.013 10.051C22.617 9.36401 21.964 8.863 21.199 8.658C20.433 8.453 19.618 8.56 18.931 8.956C18.245 9.352 17.744 10.004 17.539 10.77C17.333 11.535 17.44 12.35 17.837 13.037" stroke="white" stroke-width="2.6" stroke-linecap="round" stroke-linejoin="round"/>
<path d="M31.1248 4.34399L30.4448 6.89899" stroke="white" stroke-width="2.6" stroke-linecap="round" stroke-linejoin="round"/>
<path d="M36.15 6.68286L34.624 8.85586" stroke="white" stroke-width="2.6" stroke-linecap="round" stroke-linejoin="round"/>
<path d="M40.049 10.5811L37.876 12.1081" stroke="white" stroke-width="2.6" stroke-linecap="round" stroke-linejoin="round"/>
</g>
<defs>
<clipPath id="clip0_295_2209">
<rect width="44" height="45" fill="white" transform="translate(0.0498047 0.219971)"/>
</clipPath>
</defs>
</svg>
