<svg xmlns="http://www.w3.org/2000/svg" width="69" height="42" viewBox="0 0 69 42" fill="none">
  <g clip-path="url(#clip0_426_5051)">
    <path d="M9.16895 25.9746L18.362 15.8623C21.8094 12.0701 27.5551 11.8403 31.3472 15.2877C31.5771 15.5175 31.6919 15.6324 31.9218 15.8623L37.6675 22.0676C41.1149 25.8597 46.9754 26.0895 50.6527 22.6421C50.7676 22.5272 50.9974 22.2974 51.1123 22.1825L60.3054 12.5298" stroke="white" stroke-width="0.999949" stroke-linecap="square" stroke-dasharray="2 4"/>
    <path d="M5.83664 33.2148C8.24842 33.2148 10.2036 31.2596 10.2036 28.8479C10.2036 26.4361 8.24842 24.481 5.83664 24.481C3.42486 24.481 1.46973 26.4361 1.46973 28.8479C1.46973 31.2596 3.42486 33.2148 5.83664 33.2148Z" stroke="white" stroke-width="0.999949"/>
    <path d="M63.2937 13.6796C65.7055 13.6796 67.6606 11.7245 67.6606 9.31271C67.6606 6.90093 65.7055 4.9458 63.2937 4.9458C60.8819 4.9458 58.9268 6.90093 58.9268 9.31271C58.9268 11.7245 60.8819 13.6796 63.2937 13.6796Z" stroke="white" stroke-width="0.999949"/>
  </g>
  <defs>
    <clipPath id="clip0_426_5051">
      <rect width="67.19" height="40.9979" fill="white" transform="translate(0.969727 0.581055)"/>
    </clipPath>
  </defs>
</svg>