<svg xmlns="http://www.w3.org/2000/svg" width="44" height="34" viewBox="0 0 44 34" fill="none">
  <g clip-path="url(#clip0_426_5000)">
    <path d="M33.0674 13.3902C35.9777 13.3902 38.337 11.0309 38.337 8.12064C38.337 5.21034 35.9777 2.85107 33.0674 2.85107C30.1571 2.85107 27.7979 5.21034 27.7979 8.12064C27.7979 11.0309 30.1571 13.3902 33.0674 13.3902Z" stroke="white"/>
    <path d="M43.1165 25.9959C42.7257 20.7875 38.376 16.6831 33.0676 16.6831C30.6573 16.6831 28.3821 17.5325 26.5859 19.0436" stroke="white"/>
    <path d="M29.9145 32.8717C29.6512 25.347 23.4681 19.3276 15.8791 19.3276C8.29013 19.3276 2.10703 25.347 1.84375 32.8717" stroke="white"/>
    <path d="M15.8904 13.9932C19.3324 13.9932 22.1226 11.203 22.1226 7.76102C22.1226 4.31906 19.3324 1.52881 15.8904 1.52881C12.4485 1.52881 9.6582 4.31906 9.6582 7.76102C9.6582 11.203 12.4485 13.9932 15.8904 13.9932Z" stroke="white"/>
  </g>
  <defs>
    <clipPath id="clip0_426_5000">
      <rect width="43" height="33" fill="white" transform="translate(0.980469 0.700195)"/>
    </clipPath>
  </defs>
</svg>