<svg width="94" height="25" viewBox="0 0 94 25" fill="none" xmlns="http://www.w3.org/2000/svg">
<path d="M93.2515 12.311C93.3796 12.311 93.5027 12.3439 93.6208 12.4079C93.739 12.4719 93.8309 12.5638 93.8982 12.6836C93.9655 12.8034 94 12.9282 94 13.0595C94 13.1892 93.9672 13.3139 93.9015 13.4321C93.8358 13.5503 93.7439 13.6422 93.6258 13.7078C93.5076 13.7735 93.3828 13.8063 93.2532 13.8063C93.1235 13.8063 92.9988 13.7735 92.8806 13.7078C92.7624 13.6422 92.6705 13.5503 92.6048 13.4321C92.5392 13.3139 92.5063 13.1892 92.5063 13.0595C92.5063 12.9282 92.5408 12.8034 92.6081 12.6836C92.6754 12.5638 92.7673 12.4719 92.8855 12.4079C93.0004 12.3439 93.1235 12.311 93.2515 12.311ZM93.2532 12.4571C93.1498 12.4571 93.0513 12.4834 92.9577 12.5343C92.8642 12.5851 92.7887 12.659 92.7345 12.7558C92.6803 12.8527 92.6524 12.9528 92.6524 13.0579C92.6524 13.1629 92.6787 13.263 92.7312 13.3582C92.7837 13.4534 92.8576 13.5273 92.9528 13.5814C93.048 13.6356 93.1481 13.6619 93.2515 13.6619C93.3566 13.6619 93.4567 13.6356 93.5503 13.5814C93.6455 13.5273 93.7193 13.4534 93.7718 13.3582C93.8244 13.263 93.8523 13.1629 93.8523 13.0579C93.8523 12.9528 93.8244 12.851 93.7702 12.7558C93.716 12.659 93.6422 12.5851 93.547 12.5343C93.4551 12.4834 93.3566 12.4571 93.2532 12.4571ZM92.9151 13.4583V12.6656H93.0759C93.2269 12.6656 93.3106 12.6656 93.3303 12.6672C93.3845 12.6721 93.4255 12.682 93.4551 12.6984C93.4846 12.7148 93.5092 12.7411 93.5289 12.7739C93.5486 12.8084 93.5585 12.8461 93.5585 12.8872C93.5585 12.9446 93.5404 12.9938 93.5027 13.0332C93.4649 13.0743 93.4124 13.0989 93.3451 13.1087C93.3697 13.1186 93.3878 13.1284 93.4009 13.1383C93.414 13.1498 93.4321 13.1695 93.4551 13.199C93.4616 13.2072 93.4797 13.2384 93.5141 13.2958L93.6077 13.4567H93.4091L93.3435 13.3287C93.2991 13.2417 93.2614 13.1875 93.2318 13.1645C93.2023 13.1416 93.1662 13.1301 93.1202 13.1301H93.0776V13.4567H92.9151V13.4583ZM93.0759 13.0086H93.1416C93.2351 13.0086 93.2926 13.0053 93.3155 12.9971C93.3385 12.9906 93.3549 12.9774 93.3681 12.9594C93.3812 12.9413 93.3878 12.9216 93.3878 12.8986C93.3878 12.8773 93.3812 12.8576 93.3681 12.8396C93.3549 12.8215 93.3369 12.81 93.3139 12.8018C93.2909 12.7936 93.2335 12.7903 93.1416 12.7903H93.0759V13.0086Z" fill="white"/>
<path d="M42.3302 19.7841C43.5777 19.7841 44.4656 19.336 45.3339 18.4759L46.3844 19.5001C45.411 20.6195 44.1899 21.4025 42.3565 21.4025C39.3873 21.4025 37.3979 19.336 37.3979 16.7377C37.3979 14.146 39.4464 12.073 42.1841 12.073C44.8776 12.073 46.7898 14.0951 46.7898 16.567C46.7898 16.8165 46.7553 17.1267 46.7044 17.3417H39.3955C39.5842 18.75 40.7562 19.7841 42.3302 19.7841ZM39.4562 15.8415H44.7496C44.5001 14.5941 43.5022 13.6897 42.176 13.6897C40.8678 13.6897 39.7746 14.5925 39.4562 15.8415Z" fill="white"/>
<path d="M56.2752 15.6956V21.1958H54.3121V15.868C54.3121 14.6632 53.4947 13.8196 52.3064 13.8196C51.0836 13.8196 49.9986 14.8356 49.9986 16.2898V21.1958H48.0273V12.2783H49.9986V13.4667C50.601 12.6411 51.5743 12.0715 52.7101 12.0715C54.8554 12.0715 56.2752 13.4995 56.2752 15.6956Z" fill="white"/>
<path d="M63.2641 12.2766L60.9317 18.6894L58.6158 12.2766H56.5674L59.942 21.1777L58.8899 24.0648H60.8497L65.3125 12.2766H63.2641Z" fill="white"/>
<path d="M69.5029 12.0715C70.8028 12.0715 71.8878 12.6132 72.6362 13.4913V12.2783H74.5894V21.1958H72.6362V19.9911C71.8878 20.861 70.8028 21.4026 69.5029 21.4026C66.99 21.4026 65.1467 19.3362 65.1467 16.7379C65.1467 14.1462 66.99 12.0715 69.5029 12.0715ZM69.8902 19.6546C71.4577 19.6546 72.6362 18.3628 72.6362 16.7363C72.6362 15.1179 71.4742 13.8179 69.8902 13.8179C68.3063 13.8179 67.136 15.1179 67.136 16.7363C67.136 18.3628 68.3228 19.6546 69.8902 19.6546Z" fill="white"/>
<path d="M89.6817 12.2767V13.4913C88.9332 12.6132 87.8483 12.0715 86.5484 12.0715C84.0355 12.0715 82.1938 14.1462 82.1938 16.7363C82.1938 19.3362 84.0355 21.4026 86.5484 21.4026C87.8483 21.4026 88.9332 20.861 89.6817 19.9911V21.1975H91.6366V12.2767H89.6817ZM86.9357 19.6546C85.3682 19.6546 84.1799 18.3628 84.1799 16.7363C84.1799 15.1179 85.3518 13.8196 86.9357 13.8196C88.518 13.8196 89.6817 15.1195 89.6817 16.7363C89.6817 18.3628 88.5016 19.6546 86.9357 19.6546Z" fill="white"/>
<path d="M81.5898 19.9138V19.6889H80.8659C80.8315 19.6906 80.797 19.6906 80.7642 19.6906C79.6448 19.6906 79.2131 19.2162 79.2131 18.2265V14H81.4864V12.2766H79.2131V10.1445L77.25 10.1428V12.2766H75.5381V14H77.25V18.3118C77.25 20.3947 78.2824 21.4009 80.1601 21.4009C80.2176 21.4009 80.275 21.3992 80.3325 21.3959V21.4009H81.5898V19.9138Z" fill="white"/>
<path d="M38.1879 3.48742H39.1902V5.78928H41.594V3.48742H42.5963V9H41.594V6.66416H39.1902V9H38.1879V3.48742ZM44.0069 9V3.48742H46.0455C46.7052 3.48742 47.2106 3.64173 47.5616 3.95034C47.9156 4.25895 48.0925 4.66808 48.0925 5.17772C48.0925 5.67886 47.9156 6.08374 47.5616 6.39235C47.2106 6.69814 46.7052 6.85103 46.0455 6.85103H45.0092V9H44.0069ZM46.9883 9L45.5273 6.41784H46.5976L48.2964 9H46.9883ZM45.0092 6.18H45.9435C46.3116 6.18 46.5905 6.09648 46.7802 5.92943C46.9699 5.75955 47.0647 5.54013 47.0647 5.27115C47.0647 4.99651 46.9784 4.77567 46.8057 4.60862C46.633 4.43874 46.3796 4.3538 46.0455 4.3538H45.0092V6.18ZM49.3034 3.48742H50.7388L52.2932 6.85952H52.2083L53.7627 3.48742H55.1472V9H54.1364V4.6426H54.2893L52.5735 8.39693H51.9195L50.2122 4.65959H50.3057V9H49.3034V3.48742ZM58.0948 9.11892C57.6984 9.11892 57.3573 9.06512 57.0713 8.95753C56.7882 8.84711 56.5701 8.68997 56.4173 8.48612C56.2644 8.27943 56.1865 8.03169 56.1837 7.74289H57.1095C57.118 7.94675 57.1987 8.09539 57.3516 8.18883C57.5045 8.28226 57.7126 8.32898 57.9759 8.32898C58.1203 8.32898 58.2477 8.30774 58.3581 8.26527C58.4714 8.2228 58.5591 8.16476 58.6214 8.09115C58.6837 8.01753 58.7149 7.93542 58.7149 7.84482C58.7149 7.72874 58.6724 7.63813 58.5875 7.57301C58.5054 7.50506 58.3723 7.44277 58.1882 7.38615L57.2879 7.06338C56.9651 6.94729 56.7174 6.7944 56.5447 6.6047C56.372 6.415 56.2856 6.1885 56.2856 5.92519C56.2856 5.57693 56.4427 5.29663 56.757 5.08428C57.0741 4.8691 57.4974 4.76151 58.0269 4.76151C58.5535 4.76151 58.9598 4.8776 59.2457 5.10977C59.5345 5.3391 59.6832 5.63073 59.6917 5.98464H58.7488C58.7347 5.84874 58.6696 5.74115 58.5535 5.66187C58.4374 5.5826 58.2619 5.54296 58.0269 5.54296C57.8145 5.54296 57.6475 5.58684 57.5257 5.67461C57.4068 5.75955 57.3473 5.86007 57.3473 5.97615C57.3473 6.17151 57.5144 6.31874 57.8485 6.41784L58.8253 6.78308C59.1424 6.89067 59.3887 7.0294 59.5643 7.19928C59.7398 7.36916 59.8276 7.58434 59.8276 7.84482C59.8276 8.06283 59.754 8.26952 59.6067 8.46488C59.4623 8.65741 59.2599 8.81455 58.9994 8.9363C58.7389 9.05804 58.4374 9.11892 58.0948 9.11892ZM64.9518 9.11892C64.6941 9.11892 64.4577 9.04672 64.2425 8.90232C64.0302 8.75792 63.8603 8.54274 63.7329 8.25678C63.6055 7.96798 63.5418 7.60699 63.5418 7.1738H63.8475C63.8475 7.38048 63.8943 7.56169 63.9877 7.71741C64.0811 7.87313 64.2015 7.99488 64.3487 8.08265C64.4959 8.16759 64.6488 8.21006 64.8074 8.21006C65.0027 8.21006 65.1769 8.15627 65.3297 8.04868C65.4826 7.94109 65.603 7.79103 65.6907 7.5985C65.7813 7.40597 65.8266 7.17946 65.8266 6.91898C65.8266 6.66699 65.7828 6.44756 65.695 6.2607C65.6072 6.071 65.4855 5.92377 65.3297 5.81901C65.1769 5.71425 64.9999 5.66187 64.7989 5.66187C64.6318 5.66187 64.4761 5.70293 64.3317 5.78504C64.1873 5.86431 64.0698 5.9804 63.9792 6.13329C63.8914 6.28335 63.8475 6.46597 63.8475 6.68115H63.5418C63.5418 6.26494 63.6012 5.91386 63.7201 5.6279C63.8419 5.34193 64.0132 5.12675 64.234 4.98236C64.4577 4.83513 64.7224 4.76151 65.0282 4.76151C65.3623 4.76151 65.6653 4.8507 65.9371 5.02907C66.2117 5.20461 66.4297 5.45519 66.5911 5.78079C66.7553 6.10356 66.8374 6.48296 66.8374 6.91898C66.8374 7.36067 66.7525 7.74714 66.5826 8.07841C66.4156 8.40684 66.1891 8.66307 65.9031 8.84711C65.6171 9.02831 65.3 9.11892 64.9518 9.11892ZM62.8453 9V3.17314H63.8475V7.98072L63.4993 9H62.8453ZM67.2643 4.88043H68.4025L69.4982 8.12512H69.3198L70.2627 4.88043H71.282L69.7021 9.74747C69.5407 10.2345 69.3411 10.587 69.1033 10.805C68.8683 11.023 68.5809 11.132 68.2411 11.132C68.0458 11.132 67.8546 11.1093 67.6678 11.064C67.4837 11.0216 67.2955 10.9536 67.1029 10.8602V9.97681C67.2586 10.0731 67.4087 10.1439 67.5531 10.1892C67.7003 10.2345 67.8476 10.2571 67.9948 10.2571C68.1279 10.2571 68.2439 10.2203 68.343 10.1467C68.445 10.0759 68.5327 9.97539 68.6064 9.84515C68.68 9.71774 68.7423 9.5691 68.7932 9.39922L68.9206 9L67.2643 4.88043Z" fill="white"/>
<path d="M11.3036 11.0939C11.3036 11.3066 11.4767 11.4798 11.6893 11.4719C17.0125 11.2738 21.2935 6.99289 21.4915 1.66965C21.4994 1.45706 21.3262 1.28394 21.1135 1.28394H11.6888C11.476 1.28394 11.3036 1.45639 11.3036 1.66912V11.0939Z" fill="#3E7EEE"/>
<path d="M0.385188 12.6482C0.172455 12.6482 -0.000745919 12.8213 0.00716442 13.0339C0.205242 18.3571 4.48617 22.638 9.80941 22.8361C10.022 22.844 10.1951 22.6708 10.1951 22.4581V13.0333C10.1951 12.8206 10.0227 12.6482 9.80994 12.6482H0.385188Z" fill="#3E7EEE"/>
<path d="M11.6893 12.6553C11.4767 12.6474 11.3036 12.8206 11.3036 13.0333V22.4581C11.3036 22.6708 11.476 22.8433 11.6888 22.8433H21.1133C21.3261 22.8433 21.4993 22.67 21.4913 22.4573C21.2902 17.1342 17.0123 12.8534 11.6893 12.6553Z" fill="#3E7EEE"/>
<path d="M0.00716441 11.0933C-0.000745923 11.3059 0.172455 11.4791 0.385188 11.4791H9.80994C10.0227 11.4791 10.1951 11.3066 10.1951 11.0939V1.66912C10.1951 1.45639 10.022 1.28319 9.80941 1.2911C4.48617 1.48918 0.205242 5.77011 0.00716441 11.0933Z" fill="#3E7EEE"/>
<path d="M22.9283 1.28394C22.7156 1.28394 22.5424 1.45706 22.5503 1.66965C22.7484 6.99289 27.0293 11.2738 32.3526 11.4719C32.5651 11.4798 32.7383 11.3066 32.7383 11.0939V1.66912C32.7383 1.45639 32.5658 1.28394 32.3531 1.28394H22.9283Z" fill="#3E7EEE"/>
<path d="M22.5503 22.4576C22.5424 22.6702 22.7156 22.8433 22.9283 22.8433H32.3531C32.5658 22.8433 32.7383 22.6708 32.7383 22.4581V13.0333C32.7383 12.8206 32.5651 12.6474 32.3526 12.6553C27.0293 12.8534 22.7484 17.1343 22.5503 22.4576Z" fill="#3E7EEE"/>
</svg>
