<svg width="508" height="512" viewBox="0 0 508 512" fill="none" xmlns="http://www.w3.org/2000/svg">
<g clip-path="url(#clip0_499_4437)">
<path fill-rule="evenodd" clip-rule="evenodd" d="M385.664 348.693C381.205 343.125 199.872 111.253 193.557 103.445C187.605 95.6373 189.099 93.4186 190.208 92.288C192.448 89.6853 195.776 90.048 208.789 90.048C216.597 90.048 293.888 89.6853 302.059 89.6853C318.784 89.6853 321.387 91.1786 323.243 91.5413C325.099 92.288 329.557 96 332.907 99.712C334.763 101.952 497.152 296.277 498.624 298.133C500.48 300.373 503.083 304.085 505.323 307.413C507.179 310.763 507.563 315.221 504.576 317.077C502.72 318.187 412.8 355.349 410.197 356.096C407.595 357.205 402.773 359.061 399.04 358.336C397.184 358.357 391.616 355.755 385.664 348.693Z" fill="white"/>
<path fill-rule="evenodd" clip-rule="evenodd" d="M477.44 344.235L484.139 345.344C484.139 345.344 505.686 349.44 507.926 350.165C510.145 350.549 512.001 352.405 512.001 353.152C512.001 355.008 510.891 355.755 509.035 356.864C507.542 357.973 410.198 417.792 408.342 418.923C406.486 420.032 404.246 421.163 399.062 421.888C389.398 423.744 371.201 418.539 365.249 417.429C359.681 416.32 120.747 363.179 118.891 362.432C116.651 361.685 115.179 361.685 115.179 359.467C114.816 356.117 120 355.008 124.096 353.515C128.192 352.021 240.406 311.531 244.48 309.675C248.576 307.819 253.398 307.435 256 307.435C258.603 307.435 274.198 309.675 281.259 310.784C288.32 311.893 308.374 314.88 308.374 314.88L354.07 373.952C361.878 383.232 367.083 386.965 373.761 387.328C377.11 387.691 380.822 386.581 383.424 385.472C385.302 384.747 477.44 344.235 477.44 344.235Z" fill="white"/>
<path fill-rule="evenodd" clip-rule="evenodd" d="M216.598 199.317C216.598 199.317 257.11 251.712 257.835 252.075V252.821C256.342 253.931 186.112 318.955 185.75 319.339L111.808 346.453C111.808 346.453 109.568 347.2 108.459 347.947C107.35 348.693 105.856 350.187 106.219 353.515C106.219 354.624 106.582 371.712 106.966 375.808C106.603 376.171 21.5469 403.115 14.8056 405.163C10.3469 406.656 1.79222 409.621 0.682885 408.875C-1.17311 407.381 1.04555 405.163 2.17622 403.669C3.28555 402.176 189.824 218.624 196.886 211.2C206.934 200.427 216.598 199.317 216.598 199.317Z" fill="white"/>
</g>
<defs>
<clipPath id="clip0_499_4437">
<rect width="512" height="512" fill="white"/>
</clipPath>
</defs>
</svg>
